<svg width="150" height="150" viewBox="0 0 150 150" fill="none" xmlns="http://www.w3.org/2000/svg">
<path d="M9.37387 0.00836977L0 9.38224L20.6225 38.2631C21.4907 39.4793 22.637 40.4704 23.966 41.1536C25.2949 41.8368 26.7679 42.1924 28.2622 42.1908H28.9184C30.1509 42.1898 31.3714 42.4319 32.5102 42.9032C33.649 43.3745 34.6837 44.0657 35.5551 44.9373L60.6302 70.0124L36.0988 94.8907C31.903 93.6556 27.4771 93.4152 23.1722 94.1886C18.8673 94.962 14.8018 96.7279 11.2983 99.3462C7.79479 101.965 4.9496 105.363 2.98842 109.273C1.02725 113.182 0.0040514 117.495 0 121.869C0.00561929 125.899 0.877429 129.881 2.55636 133.545C4.23529 137.208 6.68212 140.469 9.73107 143.104C12.78 145.74 16.3598 147.689 20.228 148.821C24.0962 149.952 28.1623 150.238 32.1509 149.661C36.1396 149.083 39.9574 147.655 43.346 145.474C46.7345 143.292 49.6144 140.407 51.7907 137.015C53.967 133.623 55.3887 129.803 55.9596 125.813C56.5305 121.823 56.2372 117.758 55.0996 113.892L79.9779 89.3601L89.0518 98.434L86.1927 107.002C85.6434 108.653 85.5646 110.425 85.9652 112.119C86.3659 113.812 87.2301 115.361 88.4612 116.591L119.114 147.244C119.982 148.117 121.015 148.81 122.152 149.283C123.29 149.756 124.509 150 125.741 150C126.973 150 128.193 149.756 129.33 149.283C130.467 148.81 131.5 148.117 132.368 147.244L147.235 132.377C148.109 131.508 148.802 130.476 149.275 129.338C149.748 128.201 149.992 126.981 149.992 125.749C149.992 124.518 149.748 123.298 149.275 122.161C148.802 121.023 148.109 119.991 147.235 119.122L116.583 88.4696C115.353 87.2385 113.804 86.3743 112.11 85.9736C110.417 85.573 108.645 85.6517 106.993 86.2011L98.4256 89.0601L89.4267 80.0612L114.549 55.2861C118.716 56.3985 123.084 56.539 127.314 55.6968C131.544 54.8545 135.525 53.0519 138.948 50.4281C142.372 47.8042 145.147 44.4292 147.06 40.5631C148.973 36.6971 149.973 32.4434 149.982 28.13C149.982 25.599 149.663 23.1712 149.026 20.8465L128.966 40.9159L112.486 37.5039L109.074 21.034L129.144 0.964504C124.37 -0.319141 119.341 -0.321537 114.566 0.957558C109.791 2.23665 105.437 4.75203 101.943 8.25015C98.4501 11.7483 95.9407 16.1055 94.6681 20.8826C93.3955 25.6597 93.4047 30.6879 94.6948 35.4603L69.9478 60.5636L44.929 35.5635C43.1709 33.8059 42.1829 31.422 42.1824 28.9361V28.2706C42.1826 26.7779 41.8262 25.3067 41.1431 23.9796C40.4599 22.6524 39.4697 21.5075 38.2548 20.6403L9.37387 0.00836977ZM99.7942 99.8026C100.23 99.3661 100.747 99.0198 101.316 98.7835C101.886 98.5472 102.496 98.4256 103.113 98.4256C103.729 98.4256 104.339 98.5472 104.909 98.7835C105.478 99.0198 105.996 99.3661 106.431 99.8026L133.746 127.127C134.6 128.011 135.073 129.195 135.062 130.424C135.051 131.653 134.558 132.829 133.689 133.698C132.82 134.567 131.645 135.06 130.416 135.07C129.187 135.081 128.003 134.609 127.119 133.755L99.7942 106.439C99.3577 106.004 99.0114 105.487 98.7752 104.917C98.5389 104.348 98.4173 103.737 98.4173 103.121C98.4173 102.504 98.5389 101.894 98.7752 101.325C99.0114 100.755 99.3577 100.238 99.7942 99.8026ZM28.1216 103.121L32.5367 105.389L37.4955 105.633L40.1858 109.805L44.3572 112.495L44.6009 117.454L46.8693 121.869L44.6009 126.284L44.3572 131.243L40.1858 133.933L37.4955 138.104L32.5367 138.348L28.1216 140.616L23.7065 138.348L18.7477 138.104L16.0574 133.933L11.8861 131.243L11.6423 126.284L9.37387 121.869L11.6423 117.454L11.8861 112.495L16.0574 109.805L18.7477 105.633L23.7065 105.389L28.1216 103.121Z" fill="#3E5389"/>
</svg>
