<svg width="20" height="15" viewBox="0 0 20 15" fill="none" xmlns="http://www.w3.org/2000/svg">
<path d="M17.1815 0.388146C17.3019 0.265254 17.4457 0.167626 17.6043 0.100978C17.763 0.0343292 17.9333 0 18.1054 0C18.2774 0 18.4478 0.0343292 18.6064 0.100978C18.7651 0.167626 18.9088 0.265254 19.0293 0.388146C19.534 0.898182 19.5411 1.72236 19.0469 2.24122L8.61147 14.5774C8.49299 14.7075 8.34922 14.812 8.18893 14.8847C8.02865 14.9573 7.85524 14.9965 7.6793 14.9998C7.50336 15.0031 7.3286 14.9705 7.16571 14.9039C7.00281 14.8373 6.85521 14.7382 6.73193 14.6127L0.382071 8.17811C0.137179 7.92836 0 7.59253 0 7.24275C0 6.89296 0.137179 6.55713 0.382071 6.30739C0.502514 6.18449 0.646264 6.08687 0.804904 6.02022C0.963545 5.95357 1.13389 5.91924 1.30596 5.91924C1.47803 5.91924 1.64838 5.95357 1.80702 6.02022C1.96566 6.08687 2.10941 6.18449 2.22985 6.30739L7.61611 11.766L17.1462 0.426972L17.1815 0.388146Z" fill="#94C11F"/>
</svg>
